<svg width="34" height="34" viewBox="0 0 34 34" fill="none" xmlns="http://www.w3.org/2000/svg">
  <circle cx="17" cy="17" r="17" fill="#48A1E6"/>
  <mask id="mask0" mask-type="alpha" maskUnits="userSpaceOnUse" x="9" y="9" width="16" height="16">
    <path fill-rule="evenodd" clip-rule="evenodd" d="M9 9H25V25H9V9Z" fill="white"/>
  </mask>
  <g mask="url(#mask0)">
    <path fill-rule="evenodd" clip-rule="evenodd"
          d="M14.8789 13.4644L16.293 14.8787L19.1216 12.0503C19.5122 11.6597 20.145 11.6597 20.5356 12.0503L21.9497 13.4644C22.3403 13.855 22.3403 14.488 21.9497 14.8787L19.1216 17.707L20.5356 19.1213L23.3643 16.2927C24.5356 15.1213 24.5356 13.2217 23.3643 12.0503L21.9497 10.636C20.7783 9.46436 18.8789 9.46436 17.7075 10.636L14.8789 13.4644ZM19.1216 20.5354L17.7075 19.1213L14.8789 21.9497C14.4888 22.3403 13.8555 22.3403 13.4648 21.9497L12.0508 20.5354C11.7603 20.2451 11.686 19.8203 11.8276 19.4612C11.8765 19.3374 11.9507 19.2214 12.0508 19.1213L14.8789 16.293L13.4648 14.8787L10.6362 17.707C9.46484 18.8787 9.46484 20.7781 10.6362 21.9497L12.0508 23.364C13.2222 24.5354 15.1216 24.5354 16.2935 23.364L19.1216 20.5354Z"
          fill="white"/>
    <path fill-rule="evenodd" clip-rule="evenodd"
          d="M18.4141 14.1716L19.8283 15.5858L15.5856 19.8285L14.1714 18.4143L18.4141 14.1716Z" fill="white"/>
  </g>
</svg>
